<svg width="161" height="46" viewBox="0 0 161 46" fill="none" xmlns="http://www.w3.org/2000/svg">
<path d="M58.72 38V10H68.28C71.56 10 74.2533 10.5867 76.36 11.76C78.4933 12.9067 80.0666 14.5333 81.08 16.64C82.12 18.72 82.64 21.1733 82.64 24C82.64 26.8267 82.12 29.2933 81.08 31.4C80.0666 33.48 78.4933 35.1067 76.36 36.28C74.2533 37.4267 71.56 38 68.28 38H58.72ZM63.84 33.6H68.04C70.3866 33.6 72.24 33.2267 73.6 32.48C74.96 31.7067 75.9333 30.6133 76.52 29.2C77.1066 27.76 77.4 26.0267 77.4 24C77.4 22 77.1066 20.28 76.52 18.84C75.9333 17.4 74.96 16.2933 73.6 15.52C72.24 14.7467 70.3866 14.36 68.04 14.36H63.84V33.6Z" fill="black"/>
<path d="M93.4775 38.48C91.7708 38.48 90.3708 38.2133 89.2775 37.68C88.1841 37.12 87.3708 36.3867 86.8375 35.48C86.3041 34.5733 86.0375 33.5733 86.0375 32.48C86.0375 30.64 86.7575 29.1467 88.1975 28C89.6375 26.8533 91.7975 26.28 94.6775 26.28H99.7175V25.8C99.7175 24.44 99.3308 23.44 98.5575 22.8C97.7841 22.16 96.8241 21.84 95.6775 21.84C94.6375 21.84 93.7308 22.0933 92.9575 22.6C92.1841 23.08 91.7041 23.8 91.5175 24.76H86.5175C86.6508 23.32 87.1308 22.0667 87.9575 21C88.8108 19.9333 89.9041 19.12 91.2375 18.56C92.5708 17.9733 94.0641 17.68 95.7175 17.68C98.5441 17.68 100.771 18.3867 102.397 19.8C104.024 21.2133 104.837 23.2133 104.837 25.8V38H100.477L99.9975 34.8C99.4108 35.8667 98.5841 36.7467 97.5175 37.44C96.4775 38.1333 95.1308 38.48 93.4775 38.48ZM94.6375 34.48C96.1041 34.48 97.2375 34 98.0375 33.04C98.8641 32.08 99.3841 30.8933 99.5975 29.48H95.2375C93.8775 29.48 92.9041 29.7333 92.3175 30.24C91.7308 30.72 91.4375 31.32 91.4375 32.04C91.4375 32.8133 91.7308 33.4133 92.3175 33.84C92.9041 34.2667 93.6775 34.48 94.6375 34.48Z" fill="black"/>
<path d="M113.008 38L107.208 18.16H112.288L115.728 32.44L119.728 18.16H125.408L129.408 32.44L132.888 18.16H137.968L132.128 38H126.808L122.568 23.16L118.328 38H113.008Z" fill="black"/>
<path d="M140.798 38V18.16H145.318L145.718 21.52C146.332 20.3467 147.212 19.4133 148.358 18.72C149.532 18.0267 150.905 17.68 152.478 17.68C154.932 17.68 156.838 18.4533 158.198 20C159.558 21.5467 160.238 23.8133 160.238 26.8V38H155.118V27.28C155.118 25.5733 154.772 24.2667 154.078 23.36C153.385 22.4533 152.305 22 150.838 22C149.398 22 148.212 22.5067 147.278 23.52C146.372 24.5333 145.918 25.9467 145.918 27.76V38H140.798Z" fill="black"/>
<path fill-rule="evenodd" clip-rule="evenodd" d="M46 23C46 23.3351 45.9928 23.6685 45.9786 24H0.0213623C0.00720215 23.6685 0 23.3351 0 23C0 10.2975 10.2974 0 23 0C35.7026 0 46 10.2975 46 23ZM4.02368 36C2.76959 34.1729 1.77246 32.1555 1.08459 30H44.9154C44.2275 32.1555 43.2304 34.1729 41.9763 36H4.02368ZM6.97656 39.5C11.1184 43.5229 16.7699 46 23 46C29.2301 46 34.8816 43.5229 39.0234 39.5H6.97656Z" fill="#345EF6"/>
</svg>
