<svg width="32" height="32" viewBox="0 0 32 32" fill="none" xmlns="http://www.w3.org/2000/svg">
<path d="M14.2691 4.99809L3.27204 23.9971C3.09608 24.3011 3.00328 24.6461 3.00299 24.9974C3.0027 25.3486 3.09493 25.6938 3.27039 25.9981C3.44585 26.3024 3.69836 26.5551 4.00252 26.7308C4.30667 26.9065 4.65174 26.999 5.003 26.999H26.9971C27.3483 26.999 27.6934 26.9065 27.9975 26.7308C28.3017 26.5551 28.5542 26.3024 28.7297 25.9981C28.9051 25.6938 28.9974 25.3486 28.9971 24.9974C28.9968 24.6461 28.904 24.3011 28.728 23.9971L17.731 4.99809C17.5553 4.69457 17.3029 4.44258 16.9991 4.2674C16.6953 4.09222 16.3507 4 16 4C15.6493 4 15.3048 4.09222 15.001 4.2674C14.6972 4.44258 14.4448 4.69457 14.2691 4.99809V4.99809Z" stroke="black" stroke-width="2" stroke-linecap="round" stroke-linejoin="round"/>
</svg>
